<?xml version="1.0" encoding="utf-8"?>
<!-- Generator: Adobe Illustrator 24.3.0, SVG Export Plug-In . SVG Version: 6.00 Build 0)  -->
<svg version="1.1" id="Capa_1" xmlns="http://www.w3.org/2000/svg" xmlns:xlink="http://www.w3.org/1999/xlink" x="0px" y="0px"
	 viewBox="0 0 1007 274.1" style="enable-background:new 0 0 1007 274.1;" xml:space="preserve">
<style type="text/css">
	.st0{clip-path:url(#SVGID_2_);}
	.st1{clip-path:url(#SVGID_6_);fill:none;stroke:#1D1D1B;stroke-width:9.000000e-02;stroke-miterlimit:3.864;}
	.st2{fill:#CF1619;}
	.st3{clip-path:url(#SVGID_8_);fill:#1D1D1B;}
</style>
<g>
	<defs>
		<rect id="SVGID_1_" x="2109.9" y="-219" width="329.2" height="329.2"/>
	</defs>
	<clipPath id="SVGID_2_">
		<use xlink:href="#SVGID_1_"  style="overflow:visible;"/>
	</clipPath>
	<g class="st0">
		<defs>
			<rect id="SVGID_3_" x="2109.9" y="-219" width="329.2" height="329.2"/>
		</defs>
		<clipPath id="SVGID_4_">
			<use xlink:href="#SVGID_3_"  style="overflow:visible;"/>
		</clipPath>
		<g style="clip-path:url(#SVGID_4_);">
			
				<image style="overflow:visible;" width="1181" height="1181" xlink:href="A81CE39CEA8DD204.jpg"  transform="matrix(0.2788 0 0 0.2788 2109.8877 -219.0318)">
			</image>
		</g>
	</g>
</g>
<g>
	<defs>
		<rect id="SVGID_5_" x="2.1" y="5.9" width="1000.4" height="254.7"/>
	</defs>
	<clipPath id="SVGID_6_">
		<use xlink:href="#SVGID_5_"  style="overflow:visible;"/>
	</clipPath>
	<path class="st1" d="M642.7,183.5h40.3v29.6h-50.8c-50.8,0-68.3-37-68.3-60.2v-14.1c0-40.5,31.8-60.3,68.3-60.3
		c19.8,0,50.8,0,50.8,0v29.6h-40.3c-20.4,0-41.1,5.3-41.1,32.5c-0.6,4.1,0,6.5,0,10.6C601.6,177.1,622,183.5,642.7,183.5z"/>
</g>
<polygon class="st2" points="2.1,5.9 2.1,213.1 150.8,213.1 150.8,78.6 185.8,78.6 185.8,213.1 217.4,213.1 217.4,5.9 "/>
<g>
	<defs>
		<rect id="SVGID_7_" x="2.1" y="5.9" width="1000.4" height="254.7"/>
	</defs>
	<clipPath id="SVGID_8_">
		<use xlink:href="#SVGID_7_"  style="overflow:visible;"/>
	</clipPath>
	<path class="st3" d="M642.7,183.5h40.2v29.6h-50.8c-50.8,0-68.3-37-68.3-60.2v-14.1c0-40.5,31.8-60.3,68.3-60.3
		c19.8,0,50.8,0,50.8,0v29.6h-40.2c-20.4,0-41.1,5.2-41.1,32.5c-0.6,4.1,0,6.5,0,10.6C601.6,177.1,622,183.5,642.7,183.5"/>
	<path class="st3" d="M487.9,78.6c28.9,0,52.6,12.1,52.6,47.8v86.8h-35H448l-6.9,0c-28,0-37.9-21.8-37.9-37.4c0-2.2,0-3.4,0-5.5
		c-0.3-22.8,17.1-38.3,37.8-38.3l8.4,0h56c0-13.5-4.6-25.3-27.9-25.3h-65.1v-28H487.9z M505.5,186.2v-27.4l-47.1,0
		c-8.6,0-18,1.8-18,11.9v3.5c0,9.7,8.7,12,18,12H505.5z"/>
	<path class="st3" d="M253.6,78.6c0,0,47.8,0,70.5,0c30.7,0,53.8,9.8,53.8,44.1v90.4h-36.8v-87c0-16-9.3-18-18.7-18h-31.9v105h-36.8
		V78.6z"/>
	<path class="st3" d="M923.6,183.5c26.2,0,41.1-3.9,41.1-32.2c0-4.1,0.6-6.5,0-10.6c0-23.6-9.6-32.5-41.1-32.5h-20.9v75.3H923.6z
		 M902.7,78.6h31.4c36.6,0,68.3,19.8,68.3,60.3V153c0,23.2-17.5,60.2-68.3,60.2h-31.4v47.5h-35v-182H902.7z"/>
	<path class="st3" d="M789.9,78.6c28.9,0,52.6,12.1,52.6,47.8v86.8h-35H750l-6.9,0c-28,0-37.9-21.8-37.9-37.4c0-2.2,0-3.4,0-5.5
		c-0.3-22.8,17.1-38.3,37.8-38.3l8.4,0h56c0-13.5-4.6-25.3-27.9-25.3h-65.1v-28H789.9z M807.4,186.2l0-27.4l-47.1,0
		c-8.6,0-18,1.8-18,11.9v3.5c0,9.7,8.7,12,18,12H807.4z"/>
</g>
</svg>
